<?xml version="1.0" encoding="utf-8"?>
<!-- Generator: Adobe Illustrator 16.0.0, SVG Export Plug-In . SVG Version: 6.00 Build 0)  -->
<!DOCTYPE svg PUBLIC "-//W3C//DTD SVG 1.1//EN" "http://www.w3.org/Graphics/SVG/1.1/DTD/svg11.dtd">
<svg version="1.1" id="Layer_1" xmlns="http://www.w3.org/2000/svg" xmlns:xlink="http://www.w3.org/1999/xlink" x="0px" y="0px"
	 width="63.96px" height="63.96px" viewBox="0 0 63.96 63.96" enable-background="new 0 0 63.96 63.96" xml:space="preserve">
<g>
	<rect display="none" fill="none" width="63.96" height="63.96"/>
	
		<rect x="29.69" y="42.057" transform="matrix(0.7071 -0.7071 0.7071 0.7071 -18.7529 42.0288)" fill="#F15A29" width="23.331" height="3.187"/>
	<path fill="#010101" d="M8.452,10.66V2.665h5.33v7.995h7.995v5.33h-7.995v7.995h-5.33V15.99H0.457v-5.33H8.452z M16.447,26.65
		v-7.995h7.995V10.66h18.655l4.877,5.33h8.448c2.931,0,5.33,2.398,5.33,5.33V53.3c0,2.931-2.399,5.33-5.33,5.33h-42.64
		c-2.932,0-5.33-2.399-5.33-5.33V26.65H16.447z M35.102,50.635c7.355,0,13.325-5.97,13.325-13.325
		c0-7.356-5.97-13.325-13.325-13.325S21.777,29.954,21.777,37.31C21.777,44.665,27.747,50.635,35.102,50.635z M26.573,37.31
		c0,4.716,3.812,8.528,8.529,8.528c4.716,0,8.528-3.813,8.528-8.528c0-4.717-3.813-8.529-8.528-8.529
		C30.385,28.781,26.573,32.593,26.573,37.31z"/>
	<polygon fill="#FFFFFF" stroke="#000000" stroke-miterlimit="10" points="10.09,25.86 15.42,25.86 15.42,17.866 23.416,17.866 
		23.416,12.536 15.42,12.536 15.42,4.541 10.09,4.541 10.09,12.536 2.095,12.536 2.095,17.866 10.09,17.866 	"/>
</g>
</svg>
